<svg xmlns="http://www.w3.org/2000/svg" width="72" height="24" viewBox="0 0 72 24" fill="none">
<g clip-path="url(#clip0_4571_130537)">
<path d="M7.15085 16.5033C6.79276 16.8152 6.33648 16.9885 5.86288 16.9827C5.27954 17 4.7193 16.7574 4.3381 16.3243C3.93381 15.8449 3.72588 15.2327 3.75476 14.6089C3.73166 13.9851 3.93958 13.3787 4.34388 12.9051C4.73085 12.4661 5.29109 12.2293 5.86865 12.2524C6.31916 12.2524 6.75811 12.4026 7.1162 12.6798C7.48584 12.9744 7.76307 13.3729 7.90169 13.8234H11.5173C11.3729 12.4719 10.7144 11.2244 9.68059 10.3407C8.61209 9.44545 7.25481 8.97185 5.86288 9.0065C4.82326 8.98918 3.78942 9.23175 2.86531 9.71113C1.99318 10.1732 1.27123 10.8663 0.774519 11.7153C0.260485 12.5932 -0.00519543 13.5866 2.67127e-06 14.6031C-0.0115487 15.6139 0.248356 16.6131 0.756615 17.491C1.2591 18.3458 1.98683 19.0388 2.86473 19.4951C3.79461 19.986 4.82846 20.2344 5.87963 20.2228C7.29467 20.2633 8.67505 19.7723 9.74355 18.8425C10.7947 17.9241 11.4474 16.6362 11.5687 15.2442H7.88956C7.7856 15.7352 7.52627 16.1741 7.15085 16.5033ZM17.7492 17.1675C17.2236 17.722 16.3457 17.7451 15.7912 17.2137C15.5082 16.9423 15.3523 16.5668 15.3638 16.1741C15.3465 15.7987 15.4851 15.4348 15.745 15.1691C16.3053 14.6493 17.1774 14.6493 17.7376 15.1691C18.0033 15.4348 18.1477 15.7987 18.1362 16.1741C18.1419 16.5437 18.0033 16.9076 17.7492 17.1675ZM20.1288 13.5808C19.3779 12.8935 18.3903 12.5354 17.3738 12.5759H16.8944L18.887 9.32994H15.3581L13.6716 12.0965C13.2442 12.778 12.8919 13.5 12.6146 14.2508C12.3952 14.8804 12.2796 15.5388 12.2739 16.2088C12.2392 17.3119 12.6955 18.3746 13.5156 19.1081C14.4109 19.8763 15.566 20.2748 16.7442 20.2228C17.9282 20.2748 19.0834 19.8763 19.9786 19.1081C20.7987 18.3573 21.2492 17.2888 21.203 16.1799C21.2377 15.198 20.8507 14.2566 20.1345 13.5808" fill="black"/>
<path d="M34.4986 19.6337C33.9268 19.3507 33.4417 18.9118 33.1125 18.3689C32.7775 17.7913 32.6158 17.1271 32.6331 16.4571C32.6215 15.5965 32.8352 14.7533 33.2511 14.0025C33.6611 13.292 34.256 12.7029 34.9722 12.3102C35.7404 11.8886 36.601 11.6749 37.4789 11.6922C38.2124 11.6749 38.9401 11.825 39.6043 12.1369C40.1761 12.4084 40.6497 12.8415 40.9789 13.3845C41.3139 13.962 41.4814 14.6262 41.4583 15.2962C41.4698 16.1568 41.2561 17.0058 40.8345 17.7566C40.4302 18.467 39.8411 19.0562 39.1307 19.4662C38.3625 19.8936 37.4962 20.1073 36.6183 20.0958C35.8848 20.1016 35.157 19.9514 34.4986 19.6337ZM38.1719 18.0512C38.5993 17.7855 38.9459 17.4101 39.1769 16.9596C39.431 16.4687 39.5581 15.9257 39.5466 15.3771C39.5812 14.811 39.3733 14.2624 38.9748 13.8581C38.5358 13.4711 37.964 13.2747 37.3807 13.3151C36.8782 13.3094 36.3815 13.4422 35.9483 13.7079C35.5094 13.9736 35.157 14.3605 34.9202 14.8168C34.6719 15.3078 34.5448 15.8564 34.5506 16.4051C34.5217 16.9654 34.7239 17.5141 35.1166 17.9184C35.5671 18.3053 36.1505 18.4959 36.7396 18.4497C37.2478 18.4439 37.7445 18.3111 38.1719 18.0512ZM49.9543 12.4257C50.5088 12.9571 50.8033 13.7021 50.7629 14.4703C50.7513 14.7995 50.7167 15.1287 50.6531 15.4464L49.7464 19.9918H47.8346L48.7299 15.4983C48.7703 15.2904 48.7934 15.0825 48.7934 14.8688C48.7934 13.8754 48.2447 13.3787 47.1531 13.3787C46.5178 13.3556 45.894 13.5693 45.4031 13.9678C44.8948 14.4356 44.5598 15.0594 44.4501 15.7409L43.5895 19.986H41.672L43.3007 11.7788H45.1258L44.941 12.6856C45.7207 12.0041 46.7315 11.646 47.7653 11.6864C48.5624 11.6518 49.3421 11.9117 49.9543 12.4257ZM52.2241 19.8301C51.6985 19.7088 51.2018 19.4893 50.7571 19.189L51.5368 17.7162C51.9238 17.9819 52.357 18.1783 52.8132 18.2995C53.3273 18.4439 53.8586 18.5132 54.3958 18.5132C54.8694 18.5363 55.3488 18.4497 55.7819 18.2591C56.0707 18.1321 56.2613 17.8433 56.2613 17.5314C56.2613 17.2888 56.1054 17.0693 55.8686 16.9942C55.4643 16.8441 55.0542 16.7228 54.6326 16.6419C54.1474 16.5553 53.668 16.434 53.2002 16.2838C52.8363 16.1568 52.5071 15.9373 52.2472 15.6543C51.9584 15.3193 51.8141 14.8919 51.8429 14.453C51.8198 13.6386 52.2184 12.8704 52.8999 12.4257C53.7431 11.8943 54.7308 11.6344 55.73 11.6806C56.2844 11.6806 56.8331 11.7442 57.3702 11.8712C57.8381 11.9694 58.2886 12.1485 58.6987 12.3968L57.9709 13.8581C57.6186 13.6386 57.2316 13.4769 56.8273 13.3787C56.4115 13.2747 55.9783 13.2227 55.5509 13.2285C55.0773 13.1996 54.6037 13.292 54.1763 13.5057C53.8933 13.6386 53.7085 13.9158 53.6969 14.2277C53.6912 14.4876 53.8586 14.7186 54.1012 14.7995C54.5113 14.9612 54.9329 15.0825 55.3661 15.1634C55.8512 15.25 56.3306 15.3713 56.7985 15.5215C57.1623 15.6485 57.4915 15.8622 57.7514 16.1452C58.0287 16.4687 58.1673 16.8845 58.15 17.3119C58.1788 18.1321 57.7688 18.9118 57.0757 19.3565C56.2151 19.8763 55.2159 20.1247 54.211 20.0785C53.541 20.0785 52.8768 19.9976 52.2241 19.8301ZM60.183 11.7788H62.0947L60.466 19.9745H58.5543L60.183 11.7788ZM60.749 10.1154C60.5411 9.91906 60.4198 9.64183 60.4256 9.35882C60.4198 9.02961 60.5526 8.71194 60.7894 8.48669C61.0436 8.24412 61.3901 8.11705 61.7424 8.13438C62.0485 8.12283 62.3431 8.23256 62.5683 8.43471C62.7763 8.61953 62.8976 8.88521 62.8918 9.16245C62.9033 9.50899 62.7647 9.84397 62.5164 10.0808C62.2622 10.3234 61.9157 10.4562 61.5634 10.4331C61.2573 10.4389 60.9685 10.3234 60.749 10.1154ZM72 11.7788L70.6023 18.7327C70.2846 20.2402 69.7186 21.3318 68.8985 22.0191C67.9455 22.7526 66.7615 23.1222 65.5601 23.0587C64.1971 23.1222 62.8514 22.7295 61.7424 21.9382L62.7416 20.5058C63.0997 20.8004 63.5098 21.0199 63.9545 21.1585C64.5032 21.3318 65.075 21.4184 65.6525 21.4126C66.3745 21.4588 67.0907 21.2567 67.674 20.8293C68.1938 20.3672 68.5346 19.7377 68.627 19.0504L68.7021 18.6519C67.957 19.293 67.0041 19.6337 66.0222 19.6048C65.3638 19.6164 64.7053 19.4778 64.1105 19.189C63.5733 18.9291 63.117 18.519 62.8051 18.0108C62.4817 17.4678 62.3142 16.8441 62.3258 16.2088C62.3142 15.4059 62.5221 14.6147 62.9264 13.9158C63.3192 13.2285 63.891 12.6625 64.5898 12.2813C65.3176 11.877 66.1435 11.6749 66.9752 11.6864C67.5758 11.6749 68.165 11.7961 68.7137 12.0445C69.2104 12.2698 69.6147 12.6509 69.8803 13.1303L70.1576 11.773H72V11.7788ZM67.8935 17.6238C68.3094 17.387 68.6559 17.0405 68.8927 16.6246C69.1353 16.1857 69.2566 15.6947 69.2508 15.1922C69.2739 14.6724 69.066 14.1699 68.6848 13.8176C68.2343 13.4711 67.674 13.3036 67.1022 13.3383C66.594 13.3325 66.0915 13.4538 65.641 13.6963C65.2194 13.9274 64.8728 14.2739 64.636 14.6955C64.3935 15.1345 64.2664 15.6254 64.2722 16.1279C64.2491 16.6477 64.4628 17.1444 64.8497 17.491C65.3002 17.849 65.8662 18.0339 66.438 17.9992C66.9521 17.9992 67.4546 17.8721 67.8935 17.6238ZM25.2864 19.5529C24.5414 19.2005 23.9118 18.6403 23.4844 17.9357C23.057 17.2137 22.8376 16.3878 22.8549 15.5503C22.8376 14.401 23.1263 13.2689 23.6866 12.264C24.2353 11.2879 25.0439 10.4851 26.0199 9.94216C27.0827 9.35304 28.2782 9.05848 29.4911 9.08159C30.3401 9.07004 31.1892 9.23175 31.9747 9.56097C32.6389 9.82665 33.2049 10.2945 33.5976 10.8951L32.1652 12.108C31.5126 11.2417 30.4672 10.7681 29.3872 10.8489C28.5497 10.8258 27.7238 11.0453 27.0076 11.4669C26.3434 11.8655 25.8005 12.443 25.4424 13.1303C25.0727 13.8465 24.8821 14.6378 24.8937 15.4406C24.8648 16.2492 25.1825 17.0289 25.7716 17.5834C26.4704 18.1552 27.3599 18.4382 28.2609 18.3804C29.4103 18.4151 30.5192 17.9646 31.3162 17.1329L32.4598 18.392C31.94 18.9811 31.2873 19.4258 30.5481 19.6973C29.7568 19.9918 28.9136 20.1362 28.0645 20.1247C27.1 20.1478 26.1528 19.9514 25.2864 19.5529Z" fill="black"/>
<path d="M44.8198 3.06925C44.7562 2.8209 44.6812 2.57832 44.6003 2.32996H43.2777C43.2084 2.53211 43.1333 2.78047 43.0466 3.06925H42.6597C42.9311 2.18557 43.295 1.25569 43.7513 0.291155H44.144C44.583 1.19793 44.9468 2.12204 45.2298 3.06925H44.8198ZM44.4963 2.02963C44.3462 1.60223 44.1613 1.14018 43.9361 0.643471C43.7397 1.07087 43.5549 1.53292 43.3759 2.02963H44.4963Z" fill="black"/>
<path d="M45.8536 2.80934C45.6515 2.6072 45.5475 2.31264 45.5475 1.93722V0.296931H45.9345V1.91412C45.9345 2.19712 45.998 2.41082 46.1308 2.55522C46.2579 2.70538 46.4485 2.77469 46.6969 2.77469C46.9452 2.77469 47.1358 2.69961 47.2629 2.55522C47.3899 2.40505 47.4592 2.19135 47.4592 1.91412V0.296931H47.8462V1.94299C47.8462 2.31264 47.7422 2.60142 47.5401 2.80934C47.3322 3.01727 47.0549 3.12123 46.6969 3.12123C46.3388 3.12123 46.0558 3.01149 45.8536 2.80934Z" fill="black"/>
<path d="M49.55 3.06925H49.1688V0.620368H48.2563V0.296931H50.4568V0.620368H49.55V3.06925Z" fill="black"/>
<path d="M51.2827 2.93063C51.069 2.80934 50.9015 2.63607 50.7803 2.42237C50.659 2.2029 50.5954 1.96032 50.5954 1.68309C50.5954 1.40586 50.659 1.16328 50.7803 0.949581C50.9015 0.735881 51.069 0.562611 51.2827 0.441322C51.4964 0.320033 51.739 0.256501 52.0105 0.256501C52.2819 0.256501 52.5245 0.320033 52.7382 0.441322C52.9519 0.562611 53.1194 0.735881 53.2407 0.949581C53.362 1.16906 53.4255 1.41163 53.4255 1.68309C53.4255 1.95455 53.362 2.20868 53.2407 2.42237C53.1194 2.64185 52.9519 2.80934 52.7382 2.93063C52.5245 3.05192 52.2819 3.11545 52.0105 3.11545C51.739 3.11545 51.5022 3.05192 51.2827 2.93063ZM52.5418 2.63607C52.6978 2.54366 52.8191 2.4166 52.9057 2.2491C52.9923 2.08161 53.0328 1.89101 53.0328 1.67731C53.0328 1.46361 52.9923 1.27302 52.9057 1.1113C52.8191 0.943805 52.6978 0.81674 52.5418 0.72433C52.3859 0.631919 52.2068 0.585714 52.0105 0.585714C51.8141 0.585714 51.635 0.631919 51.4791 0.72433C51.3232 0.81674 51.2019 0.943805 51.1152 1.1113C51.0286 1.27879 50.9882 1.46361 50.9882 1.67731C50.9882 1.89101 51.0286 2.08161 51.1152 2.2491C51.2019 2.4166 51.3232 2.54366 51.4791 2.63607C51.635 2.72849 51.8141 2.77469 52.0105 2.77469C52.2068 2.77469 52.3859 2.72849 52.5418 2.63607Z" fill="black"/>
<path d="M55.4643 3.06925C55.3084 2.74581 55.1062 2.43393 54.8579 2.12782H54.2687V3.06925H53.8933V0.296931H54.8174C55.0196 0.296931 55.2044 0.331585 55.3604 0.406668C55.5163 0.481752 55.6376 0.585714 55.7184 0.72433C55.8051 0.862946 55.8455 1.02466 55.8455 1.20949C55.8455 1.41741 55.7878 1.60223 55.678 1.7524C55.5683 1.90257 55.4123 2.00653 55.2217 2.07006C55.4874 2.38772 55.7069 2.72271 55.8744 3.07503H55.4643V3.06925ZM54.2687 0.608817V1.80438H54.7712C54.9965 1.80438 55.1698 1.7524 55.291 1.64844C55.4123 1.54447 55.4701 1.40008 55.4701 1.20949C55.4701 1.01889 55.4123 0.868721 55.291 0.764759C55.1698 0.660797 55.0023 0.608817 54.7828 0.608817H54.2687Z" fill="black"/>
<path d="M56.8505 3.06925H56.4635V0.296931H56.8505V3.06925Z" fill="black"/>
<path d="M57.3703 2.79202C57.7746 2.08161 58.2482 1.35965 58.7969 0.620368H57.4223V0.296931H59.282V0.568387C58.7449 1.28457 58.2713 2.0123 57.8497 2.75159H59.3225V3.07503H57.3703V2.79202Z" fill="black"/>
<path d="M61.6212 3.06925C61.5576 2.8209 61.4826 2.57832 61.4017 2.32996H60.0791C60.0098 2.53211 59.9347 2.78047 59.848 3.06925H59.4611C59.7325 2.18557 60.0964 1.25569 60.5527 0.291155H60.9454C61.3844 1.19793 61.7482 2.12204 62.0312 3.06925H61.6212ZM61.2977 2.02963C61.1476 1.60223 60.9627 1.14018 60.7375 0.643471C60.5411 1.07087 60.3563 1.53292 60.1773 2.02963H61.2977Z" fill="black"/>
<path d="M63.4463 0.296931C63.7177 0.296931 63.9545 0.354687 64.1625 0.475976C64.3704 0.597265 64.5321 0.758984 64.6418 0.972683C64.7574 1.18061 64.8093 1.42319 64.8093 1.68887C64.8093 1.95455 64.7516 2.19712 64.6418 2.40505C64.5263 2.61297 64.3704 2.78047 64.1625 2.90176C63.9545 3.02304 63.7177 3.0808 63.4463 3.0808H62.3951V0.296931H63.4463ZM63.429 2.74581C63.6311 2.74581 63.8044 2.69961 63.9545 2.61297C64.1047 2.52634 64.2202 2.39927 64.3011 2.23755C64.3819 2.07584 64.4224 1.89101 64.4224 1.67731C64.4224 1.46361 64.3819 1.27879 64.3011 1.11707C64.2202 0.955356 64.1047 0.828292 63.9545 0.741657C63.8044 0.655022 63.6311 0.608817 63.429 0.608817H62.7763V2.74004H63.429V2.74581Z" fill="black"/>
<path d="M65.7912 2.93063C65.5775 2.80934 65.41 2.63607 65.2887 2.42237C65.1674 2.2029 65.1039 1.96032 65.1039 1.68309C65.1039 1.40586 65.1674 1.16328 65.2887 0.949581C65.41 0.735881 65.5775 0.562611 65.7912 0.441322C66.0049 0.320033 66.2475 0.256501 66.5189 0.256501C66.7904 0.256501 67.033 0.320033 67.2467 0.441322C67.4604 0.562611 67.6279 0.735881 67.7492 0.949581C67.8704 1.16906 67.934 1.41163 67.934 1.68309C67.934 1.95455 67.8704 2.20868 67.7492 2.42237C67.6279 2.64185 67.4604 2.80934 67.2467 2.93063C67.033 3.05192 66.7904 3.11545 66.5189 3.11545C66.2475 3.11545 66.0049 3.05192 65.7912 2.93063ZM67.0445 2.63607C67.2005 2.54366 67.3218 2.4166 67.4084 2.2491C67.495 2.08161 67.5355 1.89101 67.5355 1.67731C67.5355 1.46361 67.495 1.27302 67.4084 1.1113C67.3218 0.943805 67.2005 0.81674 67.0445 0.72433C66.8886 0.631919 66.7095 0.585714 66.5132 0.585714C66.3168 0.585714 66.1377 0.631919 65.9818 0.72433C65.8259 0.81674 65.7046 0.943805 65.6179 1.1113C65.5313 1.27879 65.4909 1.46361 65.4909 1.67731C65.4909 1.89101 65.5313 2.08161 65.6179 2.2491C65.7046 2.4166 65.8259 2.54366 65.9818 2.63607C66.1377 2.72849 66.3168 2.77469 66.5132 2.77469C66.7095 2.77469 66.8886 2.72849 67.0445 2.63607Z" fill="black"/>
<path d="M8.42731 2.93063C8.21361 2.80934 8.04611 2.63607 7.92483 2.42237C7.80354 2.2029 7.74 1.96032 7.74 1.68309C7.74 1.40586 7.80354 1.16328 7.92483 0.949581C8.04611 0.735881 8.21361 0.562611 8.42731 0.441322C8.64101 0.320033 8.88359 0.256501 9.15504 0.256501C9.4265 0.256501 9.66908 0.320033 9.88278 0.441322C10.0965 0.562611 10.264 0.735881 10.3853 0.949581C10.5065 1.16906 10.5701 1.41163 10.5701 1.68309C10.5701 1.95455 10.5065 2.20868 10.3853 2.42237C10.264 2.64185 10.0965 2.80934 9.88278 2.93063C9.66908 3.05192 9.4265 3.11545 9.15504 3.11545C8.88359 3.11545 8.64101 3.05192 8.42731 2.93063ZM9.68063 2.63607C9.83657 2.54366 9.95786 2.4166 10.0445 2.2491C10.1311 2.08161 10.1716 1.89101 10.1716 1.67731C10.1716 1.46361 10.1311 1.27302 10.0445 1.1113C9.95786 0.943805 9.83657 0.81674 9.68063 0.72433C9.52468 0.631919 9.34564 0.585714 9.14927 0.585714C8.95289 0.585714 8.77385 0.631919 8.61791 0.72433C8.46196 0.81674 8.34067 0.943805 8.25404 1.1113C8.1674 1.27879 8.12697 1.46361 8.12697 1.67731C8.12697 1.89101 8.1674 2.08161 8.25404 2.2491C8.34067 2.4166 8.46196 2.54366 8.61791 2.63607C8.77385 2.72849 8.95289 2.77469 9.14927 2.77469C9.34564 2.77469 9.52468 2.72849 9.68063 2.63607Z" fill="black"/>
<path d="M12.6031 3.06925C12.4472 2.74581 12.245 2.43393 11.9967 2.12782H11.4076V3.06925H11.0321V0.296931H11.9562C12.1584 0.296931 12.3432 0.331585 12.4992 0.406668C12.6551 0.481752 12.7764 0.585714 12.8572 0.72433C12.9439 0.862946 12.9843 1.02466 12.9843 1.20949C12.9843 1.41741 12.9266 1.60223 12.8168 1.7524C12.7071 1.90257 12.5511 2.00653 12.3605 2.07006C12.6262 2.38772 12.8457 2.72271 13.0132 3.07503H12.6031V3.06925ZM11.4076 0.608817V1.80438H11.91C12.1353 1.80438 12.3086 1.7524 12.4298 1.64844C12.5511 1.54447 12.6089 1.40008 12.6089 1.20949C12.6089 1.01889 12.5511 0.868721 12.4298 0.764759C12.3086 0.660798 12.1411 0.608817 11.9216 0.608817H11.4076Z" fill="black"/>
<path d="M15.1155 3.06925C14.9596 2.74581 14.7574 2.43393 14.5091 2.12782H13.92V3.06925H13.5445V0.296931H14.4687C14.6708 0.296931 14.8556 0.331585 15.0116 0.406668C15.1675 0.481752 15.2888 0.585714 15.3697 0.72433C15.4563 0.862946 15.4967 1.02466 15.4967 1.20949C15.4967 1.41741 15.439 1.60223 15.3292 1.7524C15.2195 1.90257 15.0635 2.00653 14.8729 2.07006C15.1386 2.38772 15.3581 2.72271 15.5256 3.07503H15.1155V3.06925ZM13.92 0.608817V1.80438H14.4224C14.6477 1.80438 14.821 1.7524 14.9423 1.64844C15.0635 1.54447 15.1213 1.40008 15.1213 1.20949C15.1213 1.01889 15.0635 0.868721 14.9423 0.764759C14.821 0.660798 14.6535 0.608817 14.434 0.608817H13.92Z" fill="black"/>
<path d="M17.986 3.06925H16.057V0.296931H17.9225V0.614592H16.4324V1.49827H17.7608V1.81593H16.4324V2.75159H17.9803V3.06925H17.986Z" fill="black"/>
<path d="M18.7426 3.0346C18.5694 2.98261 18.4308 2.91331 18.3268 2.8209L18.4192 2.50323C18.5232 2.58987 18.656 2.65918 18.8062 2.70538C18.9563 2.75736 19.1065 2.78047 19.2509 2.78047C19.4473 2.78047 19.6032 2.74004 19.713 2.65918C19.8227 2.57832 19.8747 2.46858 19.8747 2.32996C19.8747 2.19135 19.8285 2.09894 19.7303 2.02385C19.6321 1.94877 19.4646 1.88524 19.2278 1.81593C18.9332 1.73507 18.7195 1.63688 18.5867 1.5156C18.4539 1.39431 18.3903 1.22681 18.3903 1.01311C18.3903 0.862946 18.425 0.730105 18.5001 0.608817C18.5751 0.487528 18.6849 0.400893 18.8235 0.331585C18.9679 0.268052 19.1354 0.233398 19.3318 0.233398C19.4762 0.233398 19.6148 0.250725 19.7534 0.291155C19.892 0.331585 20.0191 0.383566 20.1288 0.452874L20.0364 0.770535C19.9324 0.701227 19.8111 0.649246 19.6899 0.614592C19.5628 0.579938 19.4473 0.556836 19.3318 0.556836C19.1469 0.556836 19.0025 0.597265 18.9044 0.672349C18.8062 0.747432 18.7542 0.85717 18.7542 0.995786C18.7542 1.12285 18.8004 1.21526 18.887 1.28457C18.9737 1.35388 19.1296 1.41741 19.3549 1.48094C19.6841 1.57335 19.9151 1.68309 20.0479 1.81015C20.1808 1.93722 20.2501 2.10471 20.2501 2.31264C20.2501 2.46858 20.2097 2.6072 20.1288 2.72271C20.0479 2.844 19.9382 2.93641 19.788 2.99994C19.6379 3.06925 19.4646 3.09813 19.2567 3.09813C19.0834 3.11545 18.9101 3.09235 18.7426 3.0346Z" fill="black"/>
<path d="M21.6709 0.296931C21.8731 0.296931 22.0579 0.331585 22.2138 0.406668C22.3698 0.481752 22.491 0.585714 22.5719 0.72433C22.6585 0.862946 22.699 1.02466 22.699 1.20949C22.699 1.39431 22.6585 1.55603 22.5719 1.69464C22.4853 1.83326 22.364 1.94299 22.208 2.01808C22.0521 2.09316 21.8731 2.13359 21.6651 2.13359H21.1222V3.07503H20.7468V0.296931H21.6709ZM21.6189 1.80438C21.8442 1.80438 22.0174 1.7524 22.1387 1.64844C22.26 1.54447 22.3178 1.40008 22.3178 1.20949C22.3178 1.01889 22.26 0.868721 22.1387 0.764759C22.0174 0.660798 21.85 0.608817 21.6305 0.608817H21.1164V1.80438H21.6189Z" fill="black"/>
<path d="M23.652 2.93063C23.4383 2.80934 23.2708 2.63607 23.1495 2.42237C23.0282 2.2029 22.9647 1.96032 22.9647 1.68309C22.9647 1.40586 23.0282 1.16328 23.1495 0.949581C23.2708 0.735881 23.4383 0.562611 23.652 0.441322C23.8657 0.320033 24.1082 0.256501 24.3797 0.256501C24.6511 0.256501 24.8937 0.320033 25.1074 0.441322C25.3211 0.562611 25.4886 0.735881 25.6099 0.949581C25.7312 1.16906 25.7947 1.41163 25.7947 1.68309C25.7947 1.95455 25.7312 2.20868 25.6099 2.42237C25.4886 2.64185 25.3211 2.80934 25.1074 2.93063C24.8937 3.05192 24.6511 3.11545 24.3797 3.11545C24.1082 3.11545 23.8657 3.05192 23.652 2.93063ZM24.9053 2.63607C25.0612 2.54366 25.1825 2.4166 25.2691 2.2491C25.3558 2.08161 25.3962 1.89101 25.3962 1.67731C25.3962 1.46361 25.3558 1.27302 25.2691 1.1113C25.1825 0.943805 25.0612 0.81674 24.9053 0.72433C24.7493 0.631919 24.5703 0.585714 24.3739 0.585714C24.1775 0.585714 23.9985 0.631919 23.8426 0.72433C23.6866 0.81674 23.5653 0.943805 23.4787 1.1113C23.3921 1.27879 23.3516 1.46361 23.3516 1.67731C23.3516 1.89101 23.3921 2.08161 23.4787 2.2491C23.5653 2.4166 23.6866 2.54366 23.8426 2.63607C23.9985 2.72849 24.1775 2.77469 24.3739 2.77469C24.5703 2.77469 24.7493 2.72849 24.9053 2.63607Z" fill="black"/>
<path d="M28.1628 0.296931H28.5324V3.07503H28.1974C27.7296 2.27798 27.204 1.54447 26.6206 0.874497V3.07503H26.2568V0.296931H26.5918C27.2098 1.00156 27.7354 1.70042 28.1628 2.38772V0.296931Z" fill="black"/>
<path d="M30.2766 0.296931C30.5481 0.296931 30.7849 0.354687 30.9928 0.475976C31.2008 0.597265 31.3625 0.758984 31.4722 0.972683C31.5877 1.18061 31.6397 1.42319 31.6397 1.68887C31.6397 1.95455 31.5819 2.19712 31.4722 2.40505C31.3567 2.61297 31.2008 2.78047 30.9928 2.90176C30.7849 3.02304 30.5481 3.0808 30.2766 3.0808H29.2255V0.296931H30.2766ZM30.2593 2.74581C30.4615 2.74581 30.6347 2.69961 30.7849 2.61297C30.9351 2.52634 31.0506 2.39927 31.1314 2.23755C31.2123 2.07584 31.2527 1.89101 31.2527 1.67731C31.2527 1.46361 31.2123 1.27879 31.1314 1.11707C31.0506 0.955356 30.9351 0.828292 30.7849 0.741657C30.6347 0.655022 30.4615 0.608817 30.2593 0.608817H29.6067V2.74004H30.2593V2.74581Z" fill="black"/>
<path d="M34.0366 3.06925H32.1075V0.296931H33.9731V0.614592H32.4829V1.49827H33.8113V1.81593H32.4829V2.75159H34.0308V3.06925H34.0366Z" fill="black"/>
<path d="M36.4739 0.296931H36.8436V3.07503H36.5086C36.0408 2.27798 35.5152 1.54447 34.9318 0.874497V3.07503H34.568V0.296931H34.903C35.5209 1.00156 36.0465 1.70042 36.4739 2.38772V0.296931Z" fill="black"/>
<path d="M38.5705 3.06925H38.1893V0.620368H37.2767V0.296931H39.4773V0.620368H38.5705V3.06925Z" fill="black"/>
<path d="M41.8395 3.06925H39.9105V0.296931H41.776V0.614592H40.2859V1.49827H41.6143V1.81593H40.2859V2.75159H41.8337V3.06925H41.8395Z" fill="black"/>
<path d="M6.97762 2.51767C6.89676 2.61008 6.77547 2.66784 6.65418 2.70827C6.52712 2.75448 6.40005 2.77758 6.27299 2.77758C6.07661 2.77758 5.89757 2.73137 5.7474 2.63896C5.59146 2.54655 5.47017 2.41949 5.38353 2.25199C5.2969 2.0845 5.25069 1.89968 5.25069 1.6802C5.25069 1.4665 5.2969 1.27591 5.38353 1.10841C5.47017 0.940917 5.59146 0.813853 5.7474 0.721442C5.90334 0.629031 6.07661 0.582826 6.27299 0.582826C6.40005 0.582826 6.52712 0.605929 6.65418 0.652134C6.77547 0.692564 6.89098 0.756096 6.97762 0.842731C7.04692 0.917815 7.07003 1.01023 7.07003 1.01023C7.07003 1.01023 7.24907 0.92359 7.34148 0.865834C7.29528 0.732993 7.20864 0.623256 7.13934 0.559723C7.02382 0.449986 6.87943 0.380678 6.72349 0.328697C6.56755 0.276716 6.40583 0.247838 6.23256 0.247838C5.97265 0.247838 5.73585 0.31137 5.52793 0.432659C5.32 0.553948 5.15251 0.721442 5.03122 0.940917C4.90993 1.15462 4.85217 1.39719 4.85217 1.66865V1.70908C4.85217 1.98054 4.91571 2.22311 5.03122 2.43104C5.15251 2.64474 5.31423 2.81801 5.52793 2.9393C5.73585 3.06059 5.97265 3.12412 6.23256 3.12412C6.40583 3.12412 6.56755 3.09524 6.72349 3.04326C6.87943 2.99128 7.02382 2.92197 7.13934 2.81223C7.20864 2.7487 7.29528 2.63896 7.34148 2.50612C7.24907 2.44837 7.07003 2.36173 7.07003 2.36173C7.07003 2.36173 7.04692 2.44259 6.97762 2.51767Z" fill="black"/>
</g>
<defs>
<clipPath id="clip0_4571_130537">
<rect width="72" height="22.8324" fill="white" transform="translate(0 0.233398)"/>
</clipPath>
</defs>
</svg>